<?xml version="1.0" standalone="no"?>
<!DOCTYPE svg PUBLIC "-//W3C//DTD SVG 20010904//EN"
 "http://www.w3.org/TR/2001/REC-SVG-20010904/DTD/svg10.dtd">
<svg version="1.0" xmlns="http://www.w3.org/2000/svg"
 width="700.000000pt" height="700.000000pt" viewBox="0 0 700.000000 700.000000"
 preserveAspectRatio="xMidYMid meet">
<metadata>
Created by potrace 1.14, written by Peter Selinger 2001-2017
</metadata>
<g transform="translate(0.000000,700.000000) scale(0.100000,-0.100000)"
fill="#000000" stroke="none">
<path d="M0 3500 l0 -3500 3500 0 3500 0 0 3500 0 3500 -3500 0 -3500 0 0
-3500z m3343 2364 l47 -16 0 -85 0 -85 490 -788 c270 -433 490 -792 490 -797
0 -6 -14 -43 -30 -84 -17 -40 -29 -77 -27 -82 2 -6 142 -80 312 -166 l310
-156 427 -460 428 -460 307 -433 308 -432 86 -276 c48 -152 93 -280 99 -284 7
-4 39 -13 71 -20 l59 -13 0 -123 0 -124 -53 -35 -53 -35 -157 70 -157 70 -157
-35 c-86 -19 -157 -35 -158 -35 -1 0 -8 -26 -15 -58 -7 -31 -15 -62 -19 -68
-4 -8 -70 18 -193 74 l-188 85 0 138 0 139 43 0 c23 0 137 -7 252 -16 195 -14
218 -14 323 2 l112 18 0 55 c-1 52 -9 71 -123 281 l-122 225 -70 37 -69 36
-68 202 c-37 112 -70 205 -73 208 -6 6 -65 -47 -65 -59 0 -4 23 -21 50 -39 28
-18 50 -33 50 -34 0 -1 31 -143 70 -315 l69 -313 -35 -69 c-23 -47 -39 -67
-47 -63 -9 6 -184 121 -194 129 -2 1 -16 62 -33 136 -16 74 -32 144 -35 156
-3 14 -57 62 -145 128 l-140 106 0 88 0 88 40 7 c22 3 63 11 90 17 l50 11 0
84 0 84 -352 440 -351 439 -195 107 -195 106 -34 -35 -35 -34 403 -664 402
-664 -12 -85 c-19 -132 -16 -127 -92 -165 l-68 -35 -69 133 c-39 72 -242 463
-452 867 -210 404 -387 740 -393 746 -7 6 -48 25 -93 43 l-81 32 -13 57 c-7
31 -15 62 -19 68 -8 16 -766 -399 -765 -418 1 -8 54 -173 118 -366 l117 -351
141 -218 c78 -120 165 -255 194 -300 l54 -83 -70 -35 -70 -35 -228 210 -227
210 -139 540 c-109 422 -144 544 -160 558 -12 10 -115 88 -231 172 -115 84
-224 164 -242 177 l-31 24 -71 -88 -71 -88 0 -402 0 -403 53 0 52 0 105 280
105 280 70 0 71 0 17 -70 17 -70 -230 -460 -230 -460 0 -585 0 -585 55 -110
55 -109 -68 -20 c-154 -45 -175 -51 -177 -48 -1 1 -25 87 -53 191 -28 104 -55
193 -59 197 -39 36 -368 299 -374 299 -5 0 -9 -8 -9 -17 0 -33 -99 -835 -103
-840 -3 -2 -34 11 -71 29 l-66 32 0 630 0 629 -75 136 c-41 75 -80 145 -88
155 -15 21 3 64 -481 -1160 l-126 -320 -118 -16 c-64 -9 -119 -14 -121 -12 -2
2 3 65 12 139 l17 135 286 617 c157 340 330 710 385 823 l100 205 86 34 86 34
-7 156 c-3 86 -8 206 -11 266 -3 83 3 47 25 -148 16 -143 31 -261 33 -263 2
-3 35 19 73 48 49 39 91 85 151 168 45 63 83 122 83 131 0 9 -7 35 -15 58
l-14 41 104 52 104 52 316 438 315 437 391 718 c406 745 449 823 453 823 1 0
23 -7 49 -16z"/>
<path d="M2985 5018 c-165 -298 -321 -580 -347 -627 l-47 -86 119 -103 c66
-56 121 -102 124 -102 2 0 153 227 335 505 l331 505 0 88 0 89 -101 134 c-55
74 -103 135 -107 136 -4 1 -142 -241 -307 -539z"/>
<path d="M3238 4498 l-298 -473 0 -175 0 -176 69 -68 c63 -63 72 -68 88 -55
10 8 152 125 315 262 l298 247 200 -16 c110 -10 203 -14 206 -11 4 3 -94 200
-217 437 l-224 432 -67 34 c-37 19 -69 34 -70 34 -2 0 -137 -213 -300 -472z"/>
<path d="M1728 3092 l-294 -399 -18 -121 -17 -121 68 -118 68 -118 5 -178 5
-179 67 51 67 51 117 -132 c64 -73 120 -134 125 -136 5 -2 9 282 9 695 l0 698
86 68 c61 49 84 73 80 85 -3 9 -17 67 -32 127 -15 61 -30 114 -34 118 -4 4
-140 -171 -302 -391z"/>
<path d="M1300 2670 c-16 -33 -30 -62 -30 -65 0 -6 48 27 108 73 l23 18 -35
17 -36 17 -30 -60z"/>
<path d="M2100 1115 l0 -65 51 0 c37 0 48 3 43 13 -14 22 -86 117 -90 117 -2
0 -4 -29 -4 -65z"/>
</g>
</svg>
